solid ascii
  facet normal 5.564395e-001 -8.308881e-001 0.000000e+000
    outer loop
      vertex   -1.904945e+001 1.375642e+001 -2.145196e+002
      vertex   -1.932892e+001 1.356927e+001 -1.940196e+002
      vertex   -1.932892e+001 1.356927e+001 -2.350196e+002
    endloop
  endfacet
  facet normal 0.000000e+000 1.000000e+000 0.000000e+000
    outer loop
      vertex   -2.654647e+001 1.585000e+001 -2.336196e+002
      vertex   -1.890972e+001 1.585000e+001 -2.322196e+002
      vertex   -1.890972e+001 1.585000e+001 -2.350196e+002
    endloop
  endfacet
  facet normal 1.423146e-001 -9.898215e-001 6.620573e-009
    outer loop
      vertex   -2.466591e+001 1.172038e+001 -2.145196e+002
      vertex   -2.654647e+001 1.145000e+001 -2.350196e+002
      vertex   -2.278535e+001 1.199077e+001 -2.350196e+002
    endloop
  endfacet
  facet normal 0.000000e+000 1.000000e+000 0.000000e+000
    outer loop
      vertex   -2.654647e+001 1.585000e+001 -2.336196e+002
      vertex   -3.418323e+001 1.585000e+001 -2.350196e+002
      vertex   -3.418323e+001 1.585000e+001 -2.322196e+002
    endloop
  endfacet
  facet normal -1.000000e+000 0.000000e+000 0.000000e+000
    outer loop
      vertex   -3.418323e+001 1.485000e+001 -2.336196e+002
      vertex   -3.418323e+001 1.585000e+001 -2.350196e+002
      vertex   -3.418323e+001 1.385000e+001 -2.350196e+002
    endloop
  endfacet
  facet normal -1.000000e+000 0.000000e+000 -0.000000e+000
    outer loop
      vertex   -3.418323e+001 1.485000e+001 -2.336196e+002
      vertex   -3.418323e+001 1.585000e+001 -2.322196e+002
      vertex   -3.418323e+001 1.585000e+001 -2.350196e+002
    endloop
  endfacet
  facet normal 4.154156e-001 -9.096317e-001 0.000000e+000
    outer loop
      vertex   -2.105713e+001 1.278002e+001 -2.145196e+002
      vertex   -2.278535e+001 1.199077e+001 -1.940196e+002
      vertex   -2.278535e+001 1.199077e+001 -2.350196e+002
    endloop
  endfacet
  facet normal -1.000000e+000 0.000000e+000 0.000000e+000
    outer loop
      vertex   -3.418323e+001 1.485000e+001 -2.336196e+002
      vertex   -3.418323e+001 1.385000e+001 -2.350196e+002
      vertex   -3.418323e+001 1.385000e+001 -2.322196e+002
    endloop
  endfacet
  facet normal 4.154152e-001 -9.096319e-001 4.231671e-008
    outer loop
      vertex   -2.105713e+001 1.278002e+001 -2.145196e+002
      vertex   -2.278535e+001 1.199077e+001 -2.350196e+002
      vertex   -1.932892e+001 1.356927e+001 -2.350196e+002
    endloop
  endfacet
  facet normal 0.000000e+000 0.000000e+000 -1.000000e+000
    outer loop
      vertex   -2.654647e+001 1.355223e+001 -2.350196e+002
      vertex   -1.890972e+001 1.385000e+001 -2.350196e+002
      vertex   -1.932892e+001 1.356927e+001 -2.350196e+002
    endloop
  endfacet
  facet normal -1.423145e-001 -9.898215e-001 0.000000e+000
    outer loop
      vertex   -2.842704e+001 1.172038e+001 -2.145196e+002
      vertex   -2.654647e+001 1.145000e+001 -2.350196e+002
      vertex   -2.654647e+001 1.145000e+001 -1.940196e+002
    endloop
  endfacet
  facet normal 1.423146e-001 -9.898215e-001 0.000000e+000
    outer loop
      vertex   -2.466591e+001 1.172038e+001 -2.145196e+002
      vertex   -2.654647e+001 1.145000e+001 -1.940196e+002
      vertex   -2.654647e+001 1.145000e+001 -2.350196e+002
    endloop
  endfacet
  facet normal -1.423146e-001 -9.898215e-001 -0.000000e+000
    outer loop
      vertex   -2.842704e+001 1.172038e+001 -2.145196e+002
      vertex   -3.030760e+001 1.199077e+001 -1.940196e+002
      vertex   -3.030760e+001 1.199077e+001 -2.350196e+002
    endloop
  endfacet
  facet normal -4.154156e-001 -9.096317e-001 0.000000e+000
    outer loop
      vertex   -3.203582e+001 1.278002e+001 -2.145196e+002
      vertex   -3.030760e+001 1.199077e+001 -2.350196e+002
      vertex   -3.030760e+001 1.199077e+001 -1.940196e+002
    endloop
  endfacet
  facet normal -1.423146e-001 -9.898215e-001 -6.620573e-009
    outer loop
      vertex   -2.842704e+001 1.172038e+001 -2.145196e+002
      vertex   -3.030760e+001 1.199077e+001 -2.350196e+002
      vertex   -2.654647e+001 1.145000e+001 -2.350196e+002
    endloop
  endfacet
  facet normal -4.154144e-001 -9.096323e-001 -0.000000e+000
    outer loop
      vertex   -3.203582e+001 1.278002e+001 -2.145196e+002
      vertex   -3.376403e+001 1.356927e+001 -1.940196e+002
      vertex   -3.376403e+001 1.356927e+001 -2.350196e+002
    endloop
  endfacet
  facet normal -5.564421e-001 -8.308864e-001 0.000000e+000
    outer loop
      vertex   -3.404350e+001 1.375642e+001 -2.145196e+002
      vertex   -3.376403e+001 1.356927e+001 -2.350196e+002
      vertex   -3.376403e+001 1.356927e+001 -1.940196e+002
    endloop
  endfacet
  facet normal -4.154150e-001 -9.096320e-001 6.164211e-008
    outer loop
      vertex   -3.203582e+001 1.278002e+001 -2.145196e+002
      vertex   -3.376403e+001 1.356927e+001 -2.350196e+002
      vertex   -3.030760e+001 1.199077e+001 -2.350196e+002
    endloop
  endfacet
  facet normal 1.000000e+000 0.000000e+000 -0.000000e+000
    outer loop
      vertex   -1.890972e+001 1.485000e+001 -2.336196e+002
      vertex   -1.890972e+001 1.585000e+001 -2.350196e+002
      vertex   -1.890972e+001 1.585000e+001 -2.322196e+002
    endloop
  endfacet
  facet normal 1.000000e+000 0.000000e+000 0.000000e+000
    outer loop
      vertex   -1.890972e+001 1.485000e+001 -2.336196e+002
      vertex   -1.890972e+001 1.385000e+001 -2.350196e+002
      vertex   -1.890972e+001 1.585000e+001 -2.350196e+002
    endloop
  endfacet
  facet normal 1.000000e+000 0.000000e+000 0.000000e+000
    outer loop
      vertex   -1.890972e+001 1.485000e+001 -2.336196e+002
      vertex   -1.890972e+001 1.385000e+001 -2.322196e+002
      vertex   -1.890972e+001 1.385000e+001 -2.350196e+002
    endloop
  endfacet
  facet normal 0.000000e+000 -0.000000e+000 -1.000000e+000
    outer loop
      vertex   -2.654647e+001 1.355223e+001 -2.350196e+002
      vertex   -1.890972e+001 1.585000e+001 -2.350196e+002
      vertex   -1.890972e+001 1.385000e+001 -2.350196e+002
    endloop
  endfacet
  facet normal 0.000000e+000 0.000000e+000 -1.000000e+000
    outer loop
      vertex   -2.654647e+001 1.355223e+001 -2.350196e+002
      vertex   -3.418323e+001 1.585000e+001 -2.350196e+002
      vertex   -1.890972e+001 1.585000e+001 -2.350196e+002
    endloop
  endfacet
  facet normal 0.000000e+000 0.000000e+000 -1.000000e+000
    outer loop
      vertex   -2.654647e+001 1.355223e+001 -2.350196e+002
      vertex   -3.418323e+001 1.385000e+001 -2.350196e+002
      vertex   -3.418323e+001 1.585000e+001 -2.350196e+002
    endloop
  endfacet
  facet normal 0.000000e+000 0.000000e+000 -1.000000e+000
    outer loop
      vertex   -2.654647e+001 1.355223e+001 -2.350196e+002
      vertex   -3.376403e+001 1.356927e+001 -2.350196e+002
      vertex   -3.418323e+001 1.385000e+001 -2.350196e+002
    endloop
  endfacet
  facet normal 0.000000e+000 0.000000e+000 -1.000000e+000
    outer loop
      vertex   -2.654647e+001 1.355223e+001 -2.350196e+002
      vertex   -3.030760e+001 1.199077e+001 -2.350196e+002
      vertex   -3.376403e+001 1.356927e+001 -2.350196e+002
    endloop
  endfacet
  facet normal 0.000000e+000 0.000000e+000 -1.000000e+000
    outer loop
      vertex   -2.654647e+001 1.355223e+001 -2.350196e+002
      vertex   -2.654647e+001 1.145000e+001 -2.350196e+002
      vertex   -3.030760e+001 1.199077e+001 -2.350196e+002
    endloop
  endfacet
  facet normal -0.000000e+000 0.000000e+000 -1.000000e+000
    outer loop
      vertex   -2.654647e+001 1.355223e+001 -2.350196e+002
      vertex   -2.278535e+001 1.199077e+001 -2.350196e+002
      vertex   -2.654647e+001 1.145000e+001 -2.350196e+002
    endloop
  endfacet
  facet normal 0.000000e+000 0.000000e+000 -1.000000e+000
    outer loop
      vertex   -2.654647e+001 1.355223e+001 -2.350196e+002
      vertex   -1.932892e+001 1.356927e+001 -2.350196e+002
      vertex   -2.278535e+001 1.199077e+001 -2.350196e+002
    endloop
  endfacet
  facet normal 5.564403e-001 -8.308876e-001 -1.725733e-008
    outer loop
      vertex   -1.904945e+001 1.375642e+001 -2.145196e+002
      vertex   -1.932892e+001 1.356927e+001 -2.350196e+002
      vertex   -1.890972e+001 1.385000e+001 -2.350196e+002
    endloop
  endfacet
  facet normal 0.000000e+000 1.000000e+000 0.000000e+000
    outer loop
      vertex   -2.654647e+001 1.585000e+001 -2.336196e+002
      vertex   -1.890972e+001 1.585000e+001 -2.350196e+002
      vertex   -3.418323e+001 1.585000e+001 -2.350196e+002
    endloop
  endfacet
  facet normal 1.423145e-001 -9.898215e-001 0.000000e+000
    outer loop
      vertex   -2.466591e+001 1.172038e+001 -2.145196e+002
      vertex   -2.278535e+001 1.199077e+001 -2.350196e+002
      vertex   -2.278535e+001 1.199077e+001 -1.940196e+002
    endloop
  endfacet
  facet normal -5.564421e-001 -8.308864e-001 0.000000e+000
    outer loop
      vertex   -3.404350e+001 1.375642e+001 -2.145196e+002
      vertex   -3.418323e+001 1.385000e+001 -2.350196e+002
      vertex   -3.376403e+001 1.356927e+001 -2.350196e+002
    endloop
  endfacet
  facet normal -5.564421e-001 -8.308864e-001 -0.000000e+000
    outer loop
      vertex   -3.404350e+001 1.375642e+001 -2.145196e+002
      vertex   -3.418323e+001 1.385000e+001 -2.322196e+002
      vertex   -3.418323e+001 1.385000e+001 -2.350196e+002
    endloop
  endfacet
  facet normal 4.154147e-001 -9.096321e-001 0.000000e+000
    outer loop
      vertex   -2.105713e+001 1.278002e+001 -2.145196e+002
      vertex   -1.932892e+001 1.356927e+001 -2.350196e+002
      vertex   -1.932892e+001 1.356927e+001 -1.940196e+002
    endloop
  endfacet
  facet normal 5.564421e-001 -8.308864e-001 0.000000e+000
    outer loop
      vertex   -1.904945e+001 1.375642e+001 -2.145196e+002
      vertex   -1.890972e+001 1.385000e+001 -2.350196e+002
      vertex   -1.890972e+001 1.385000e+001 -2.322196e+002
    endloop
  endfacet
  facet normal -1.000000e+000 0.000000e+000 0.000000e+000
    outer loop
      vertex   -3.418323e+001 1.485000e+001 -2.336196e+002
      vertex   -3.418323e+001 1.385000e+001 -2.322196e+002
      vertex   -3.418323e+001 1.585000e+001 -2.322196e+002
    endloop
  endfacet
  facet normal 1.000000e+000 0.000000e+000 0.000000e+000
    outer loop
      vertex   -1.890972e+001 1.485000e+001 -2.336196e+002
      vertex   -1.890972e+001 1.585000e+001 -2.322196e+002
      vertex   -1.890972e+001 1.385000e+001 -2.322196e+002
    endloop
  endfacet
  facet normal -0.000000e+000 1.000000e+000 0.000000e+000
    outer loop
      vertex   -2.654647e+001 1.585000e+001 -2.336196e+002
      vertex   -3.418323e+001 1.585000e+001 -2.322196e+002
      vertex   -1.890972e+001 1.585000e+001 -2.322196e+002
    endloop
  endfacet
  facet normal -7.818750e-001 6.234353e-001 0.000000e+000
    outer loop
      vertex   -2.837231e+001 1.405585e+001 -2.145196e+002
      vertex   -2.853645e+001 1.385000e+001 -2.322196e+002
      vertex   -2.853645e+001 1.385000e+001 -1.968196e+002
    endloop
  endfacet
  facet normal 0.000000e+000 0.000000e+000 1.000000e+000
    outer loop
      vertex   -2.820818e+001 1.426170e+001 -2.322196e+002
      vertex   -3.418323e+001 1.585000e+001 -2.322196e+002
      vertex   -2.853645e+001 1.385000e+001 -2.322196e+002
    endloop
  endfacet
  facet normal 5.564421e-001 -8.308864e-001 0.000000e+000
    outer loop
      vertex   -1.904945e+001 1.375642e+001 -2.145196e+002
      vertex   -1.890972e+001 1.385000e+001 -2.322196e+002
      vertex   -1.890972e+001 1.385000e+001 -1.968196e+002
    endloop
  endfacet
  facet normal -0.000000e+000 0.000000e+000 1.000000e+000
    outer loop
      vertex   -1.890972e+001 1.585000e+001 -2.322196e+002
      vertex   -3.418323e+001 1.585000e+001 -2.322196e+002
      vertex   -2.654647e+001 1.495000e+001 -2.322196e+002
    endloop
  endfacet
  facet normal 0.000000e+000 0.000000e+000 1.000000e+000
    outer loop
      vertex   -1.890972e+001 1.385000e+001 -2.322196e+002
      vertex   -2.564717e+001 1.477112e+001 -2.322196e+002
      vertex   -2.488477e+001 1.426170e+001 -2.322196e+002
    endloop
  endfacet
  facet normal -0.000000e+000 0.000000e+000 1.000000e+000
    outer loop
      vertex   -1.890972e+001 1.585000e+001 -2.322196e+002
      vertex   -2.654647e+001 1.495000e+001 -2.322196e+002
      vertex   -1.890972e+001 1.385000e+001 -2.322196e+002
    endloop
  endfacet
  facet normal 0.000000e+000 0.000000e+000 1.000000e+000
    outer loop
      vertex   -1.890972e+001 1.385000e+001 -2.322196e+002
      vertex   -2.654647e+001 1.495000e+001 -2.322196e+002
      vertex   -2.564717e+001 1.477112e+001 -2.322196e+002
    endloop
  endfacet
  facet normal 0.000000e+000 0.000000e+000 1.000000e+000
    outer loop
      vertex   -2.744578e+001 1.477112e+001 -2.322196e+002
      vertex   -3.418323e+001 1.585000e+001 -2.322196e+002
      vertex   -2.820818e+001 1.426170e+001 -2.322196e+002
    endloop
  endfacet
  facet normal 0.000000e+000 0.000000e+000 1.000000e+000
    outer loop
      vertex   -1.890972e+001 1.385000e+001 -2.322196e+002
      vertex   -2.488477e+001 1.426170e+001 -2.322196e+002
      vertex   -2.455650e+001 1.385000e+001 -2.322196e+002
    endloop
  endfacet
  facet normal 0.000000e+000 0.000000e+000 1.000000e+000
    outer loop
      vertex   -2.654647e+001 1.495000e+001 -2.322196e+002
      vertex   -3.418323e+001 1.585000e+001 -2.322196e+002
      vertex   -2.744578e+001 1.477112e+001 -2.322196e+002
    endloop
  endfacet
  facet normal 0.000000e+000 0.000000e+000 1.000000e+000
    outer loop
      vertex   -2.853645e+001 1.385000e+001 -2.322196e+002
      vertex   -3.418323e+001 1.585000e+001 -2.322196e+002
      vertex   -3.418323e+001 1.385000e+001 -2.322196e+002
    endloop
  endfacet
  facet normal 1.950896e-001 9.807854e-001 0.000000e+000
    outer loop
      vertex   -2.609682e+001 1.486056e+001 -2.145196e+002
      vertex   -2.564717e+001 1.477112e+001 -1.968196e+002
      vertex   -2.564717e+001 1.477112e+001 -2.322196e+002
    endloop
  endfacet
  facet normal 1.950919e-001 9.807850e-001 6.335615e-008
    outer loop
      vertex   -2.609682e+001 1.486056e+001 -2.145196e+002
      vertex   -2.564717e+001 1.477112e+001 -2.322196e+002
      vertex   -2.654647e+001 1.495000e+001 -2.322196e+002
    endloop
  endfacet
  facet normal 1.950943e-001 9.807845e-001 -0.000000e+000
    outer loop
      vertex   -2.609682e+001 1.486056e+001 -2.145196e+002
      vertex   -2.654647e+001 1.495000e+001 -2.322196e+002
      vertex   -2.654647e+001 1.495000e+001 -1.968196e+002
    endloop
  endfacet
  facet normal 5.555678e-001 8.314712e-001 0.000000e+000
    outer loop
      vertex   -2.526597e+001 1.451641e+001 -2.145196e+002
      vertex   -2.488477e+001 1.426170e+001 -1.968196e+002
      vertex   -2.488477e+001 1.426170e+001 -2.322196e+002
    endloop
  endfacet
  facet normal 5.555688e-001 8.314706e-001 2.993400e-008
    outer loop
      vertex   -2.526597e+001 1.451641e+001 -2.145196e+002
      vertex   -2.488477e+001 1.426170e+001 -2.322196e+002
      vertex   -2.564717e+001 1.477112e+001 -2.322196e+002
    endloop
  endfacet
  facet normal 5.555697e-001 8.314700e-001 -0.000000e+000
    outer loop
      vertex   -2.526597e+001 1.451641e+001 -2.145196e+002
      vertex   -2.564717e+001 1.477112e+001 -2.322196e+002
      vertex   -2.564717e+001 1.477112e+001 -1.968196e+002
    endloop
  endfacet
  facet normal 7.818750e-001 6.234353e-001 0.000000e+000
    outer loop
      vertex   -2.472064e+001 1.405585e+001 -2.145196e+002
      vertex   -2.455650e+001 1.385000e+001 -1.968196e+002
      vertex   -2.455650e+001 1.385000e+001 -2.322196e+002
    endloop
  endfacet
  facet normal 7.818750e-001 6.234353e-001 0.000000e+000
    outer loop
      vertex   -2.472064e+001 1.405585e+001 -2.145196e+002
      vertex   -2.455650e+001 1.385000e+001 -2.322196e+002
      vertex   -2.488477e+001 1.426170e+001 -2.322196e+002
    endloop
  endfacet
  facet normal 7.818750e-001 6.234353e-001 -0.000000e+000
    outer loop
      vertex   -2.472064e+001 1.405585e+001 -2.145196e+002
      vertex   -2.488477e+001 1.426170e+001 -2.322196e+002
      vertex   -2.488477e+001 1.426170e+001 -1.968196e+002
    endloop
  endfacet
  facet normal -7.818750e-001 6.234353e-001 0.000000e+000
    outer loop
      vertex   -2.837231e+001 1.405585e+001 -2.145196e+002
      vertex   -2.820818e+001 1.426170e+001 -2.322196e+002
      vertex   -2.853645e+001 1.385000e+001 -2.322196e+002
    endloop
  endfacet
  facet normal -5.564421e-001 -8.308864e-001 -0.000000e+000
    outer loop
      vertex   -3.404350e+001 1.375642e+001 -2.145196e+002
      vertex   -3.418323e+001 1.385000e+001 -1.968196e+002
      vertex   -3.418323e+001 1.385000e+001 -2.322196e+002
    endloop
  endfacet
  facet normal 0.000000e+000 1.000000e+000 0.000000e+000
    outer loop
      vertex   -3.135984e+001 1.385000e+001 -2.145196e+002
      vertex   -3.418323e+001 1.385000e+001 -2.322196e+002
      vertex   -3.418323e+001 1.385000e+001 -1.968196e+002
    endloop
  endfacet
  facet normal 0.000000e+000 1.000000e+000 0.000000e+000
    outer loop
      vertex   -3.135984e+001 1.385000e+001 -2.145196e+002
      vertex   -2.853645e+001 1.385000e+001 -2.322196e+002
      vertex   -3.418323e+001 1.385000e+001 -2.322196e+002
    endloop
  endfacet
  facet normal 0.000000e+000 1.000000e+000 0.000000e+000
    outer loop
      vertex   -3.135984e+001 1.385000e+001 -2.145196e+002
      vertex   -2.853645e+001 1.385000e+001 -1.968196e+002
      vertex   -2.853645e+001 1.385000e+001 -2.322196e+002
    endloop
  endfacet
  facet normal -1.950936e-001 9.807846e-001 0.000000e+000
    outer loop
      vertex   -2.699613e+001 1.486056e+001 -2.145196e+002
      vertex   -2.654647e+001 1.495000e+001 -1.968196e+002
      vertex   -2.654647e+001 1.495000e+001 -2.322196e+002
    endloop
  endfacet
  facet normal 0.000000e+000 1.000000e+000 0.000000e+000
    outer loop
      vertex   -2.173311e+001 1.385000e+001 -2.145196e+002
      vertex   -2.455650e+001 1.385000e+001 -2.322196e+002
      vertex   -2.455650e+001 1.385000e+001 -1.968196e+002
    endloop
  endfacet
  facet normal 0.000000e+000 1.000000e+000 0.000000e+000
    outer loop
      vertex   -2.173311e+001 1.385000e+001 -2.145196e+002
      vertex   -1.890972e+001 1.385000e+001 -2.322196e+002
      vertex   -2.455650e+001 1.385000e+001 -2.322196e+002
    endloop
  endfacet
  facet normal 0.000000e+000 1.000000e+000 0.000000e+000
    outer loop
      vertex   -2.173311e+001 1.385000e+001 -2.145196e+002
      vertex   -1.890972e+001 1.385000e+001 -1.968196e+002
      vertex   -1.890972e+001 1.385000e+001 -2.322196e+002
    endloop
  endfacet
  facet normal -1.950896e-001 9.807854e-001 0.000000e+000
    outer loop
      vertex   -2.699613e+001 1.486056e+001 -2.145196e+002
      vertex   -2.744578e+001 1.477112e+001 -2.322196e+002
      vertex   -2.744578e+001 1.477112e+001 -1.968196e+002
    endloop
  endfacet
  facet normal -1.950916e-001 9.807850e-001 5.284461e-008
    outer loop
      vertex   -2.699613e+001 1.486056e+001 -2.145196e+002
      vertex   -2.654647e+001 1.495000e+001 -2.322196e+002
      vertex   -2.744578e+001 1.477112e+001 -2.322196e+002
    endloop
  endfacet
  facet normal -7.818750e-001 6.234353e-001 0.000000e+000
    outer loop
      vertex   -2.837231e+001 1.405585e+001 -2.145196e+002
      vertex   -2.820818e+001 1.426170e+001 -1.968196e+002
      vertex   -2.820818e+001 1.426170e+001 -2.322196e+002
    endloop
  endfacet
  facet normal -5.555697e-001 8.314700e-001 0.000000e+000
    outer loop
      vertex   -2.782698e+001 1.451641e+001 -2.145196e+002
      vertex   -2.820818e+001 1.426170e+001 -2.322196e+002
      vertex   -2.820818e+001 1.426170e+001 -1.968196e+002
    endloop
  endfacet
  facet normal -5.555697e-001 8.314700e-001 0.000000e+000
    outer loop
      vertex   -2.782698e+001 1.451641e+001 -2.145196e+002
      vertex   -2.744578e+001 1.477112e+001 -2.322196e+002
      vertex   -2.820818e+001 1.426170e+001 -2.322196e+002
    endloop
  endfacet
  facet normal -5.555697e-001 8.314700e-001 0.000000e+000
    outer loop
      vertex   -2.782698e+001 1.451641e+001 -2.145196e+002
      vertex   -2.744578e+001 1.477112e+001 -1.968196e+002
      vertex   -2.744578e+001 1.477112e+001 -2.322196e+002
    endloop
  endfacet
  facet normal -5.555697e-001 8.314700e-001 0.000000e+000
    outer loop
      vertex   -2.782698e+001 1.451641e+001 -2.145196e+002
      vertex   -2.820818e+001 1.426170e+001 -1.968196e+002
      vertex   -2.744578e+001 1.477112e+001 -1.968196e+002
    endloop
  endfacet
  facet normal -0.000000e+000 1.000000e+000 0.000000e+000
    outer loop
      vertex   -2.173311e+001 1.385000e+001 -2.145196e+002
      vertex   -2.455650e+001 1.385000e+001 -1.968196e+002
      vertex   -1.890972e+001 1.385000e+001 -1.968196e+002
    endloop
  endfacet
  facet normal -1.950916e-001 9.807850e-001 -5.284461e-008
    outer loop
      vertex   -2.699613e+001 1.486056e+001 -2.145196e+002
      vertex   -2.744578e+001 1.477112e+001 -1.968196e+002
      vertex   -2.654647e+001 1.495000e+001 -1.968196e+002
    endloop
  endfacet
  facet normal -7.818750e-001 6.234353e-001 0.000000e+000
    outer loop
      vertex   -2.837231e+001 1.405585e+001 -2.145196e+002
      vertex   -2.853645e+001 1.385000e+001 -1.968196e+002
      vertex   -2.820818e+001 1.426170e+001 -1.968196e+002
    endloop
  endfacet
  facet normal -0.000000e+000 1.000000e+000 0.000000e+000
    outer loop
      vertex   -3.135984e+001 1.385000e+001 -2.145196e+002
      vertex   -3.418323e+001 1.385000e+001 -1.968196e+002
      vertex   -2.853645e+001 1.385000e+001 -1.968196e+002
    endloop
  endfacet
  facet normal -4.154150e-001 -9.096320e-001 -6.164211e-008
    outer loop
      vertex   -3.203582e+001 1.278002e+001 -2.145196e+002
      vertex   -3.030760e+001 1.199077e+001 -1.940196e+002
      vertex   -3.376403e+001 1.356927e+001 -1.940196e+002
    endloop
  endfacet
  facet normal 5.564403e-001 -8.308876e-001 1.725733e-008
    outer loop
      vertex   -1.904945e+001 1.375642e+001 -2.145196e+002
      vertex   -1.890972e+001 1.385000e+001 -1.940196e+002
      vertex   -1.932892e+001 1.356927e+001 -1.940196e+002
    endloop
  endfacet
  facet normal 4.154152e-001 -9.096319e-001 -4.231671e-008
    outer loop
      vertex   -2.105713e+001 1.278002e+001 -2.145196e+002
      vertex   -1.932892e+001 1.356927e+001 -1.940196e+002
      vertex   -2.278535e+001 1.199077e+001 -1.940196e+002
    endloop
  endfacet
  facet normal -5.564421e-001 -8.308864e-001 0.000000e+000
    outer loop
      vertex   -3.404350e+001 1.375642e+001 -2.145196e+002
      vertex   -3.376403e+001 1.356927e+001 -1.940196e+002
      vertex   -3.418323e+001 1.385000e+001 -1.940196e+002
    endloop
  endfacet
  facet normal 7.818750e-001 6.234353e-001 0.000000e+000
    outer loop
      vertex   -2.472064e+001 1.405585e+001 -2.145196e+002
      vertex   -2.488477e+001 1.426170e+001 -1.968196e+002
      vertex   -2.455650e+001 1.385000e+001 -1.968196e+002
    endloop
  endfacet
  facet normal 5.564421e-001 -8.308864e-001 0.000000e+000
    outer loop
      vertex   -1.904945e+001 1.375642e+001 -2.145196e+002
      vertex   -1.890972e+001 1.385000e+001 -1.968196e+002
      vertex   -1.890972e+001 1.385000e+001 -1.940196e+002
    endloop
  endfacet
  facet normal -5.564421e-001 -8.308864e-001 -0.000000e+000
    outer loop
      vertex   -3.404350e+001 1.375642e+001 -2.145196e+002
      vertex   -3.418323e+001 1.385000e+001 -1.940196e+002
      vertex   -3.418323e+001 1.385000e+001 -1.968196e+002
    endloop
  endfacet
  facet normal 5.555688e-001 8.314706e-001 -2.993400e-008
    outer loop
      vertex   -2.526597e+001 1.451641e+001 -2.145196e+002
      vertex   -2.564717e+001 1.477112e+001 -1.968196e+002
      vertex   -2.488477e+001 1.426170e+001 -1.968196e+002
    endloop
  endfacet
  facet normal 1.950919e-001 9.807850e-001 -6.335615e-008
    outer loop
      vertex   -2.609682e+001 1.486056e+001 -2.145196e+002
      vertex   -2.654647e+001 1.495000e+001 -1.968196e+002
      vertex   -2.564717e+001 1.477112e+001 -1.968196e+002
    endloop
  endfacet
  facet normal -1.423146e-001 -9.898215e-001 6.620573e-009
    outer loop
      vertex   -2.842704e+001 1.172038e+001 -2.145196e+002
      vertex   -2.654647e+001 1.145000e+001 -1.940196e+002
      vertex   -3.030760e+001 1.199077e+001 -1.940196e+002
    endloop
  endfacet
  facet normal 1.423146e-001 -9.898215e-001 -6.620573e-009
    outer loop
      vertex   -2.466591e+001 1.172038e+001 -2.145196e+002
      vertex   -2.278535e+001 1.199077e+001 -1.940196e+002
      vertex   -2.654647e+001 1.145000e+001 -1.940196e+002
    endloop
  endfacet
  facet normal 0.000000e+000 0.000000e+000 -1.000000e+000
    outer loop
      vertex   -2.853645e+001 1.385000e+001 -1.968196e+002
      vertex   -3.418323e+001 1.385000e+001 -1.968196e+002
      vertex   -3.418323e+001 1.585000e+001 -1.968196e+002
    endloop
  endfacet
  facet normal 0.000000e+000 0.000000e+000 -1.000000e+000
    outer loop
      vertex   -2.820818e+001 1.426170e+001 -1.968196e+002
      vertex   -2.853645e+001 1.385000e+001 -1.968196e+002
      vertex   -3.418323e+001 1.585000e+001 -1.968196e+002
    endloop
  endfacet
  facet normal 0.000000e+000 1.000000e+000 0.000000e+000
    outer loop
      vertex   -2.654647e+001 1.585000e+001 -1.954196e+002
      vertex   -3.418323e+001 1.585000e+001 -1.968196e+002
      vertex   -3.418323e+001 1.585000e+001 -1.940196e+002
    endloop
  endfacet
  facet normal 0.000000e+000 0.000000e+000 -1.000000e+000
    outer loop
      vertex   -2.744578e+001 1.477112e+001 -1.968196e+002
      vertex   -2.820818e+001 1.426170e+001 -1.968196e+002
      vertex   -3.418323e+001 1.585000e+001 -1.968196e+002
    endloop
  endfacet
  facet normal 0.000000e+000 0.000000e+000 -1.000000e+000
    outer loop
      vertex   -1.890972e+001 1.385000e+001 -1.968196e+002
      vertex   -2.455650e+001 1.385000e+001 -1.968196e+002
      vertex   -2.488477e+001 1.426170e+001 -1.968196e+002
    endloop
  endfacet
  facet normal 0.000000e+000 0.000000e+000 -1.000000e+000
    outer loop
      vertex   -2.654647e+001 1.495000e+001 -1.968196e+002
      vertex   -2.744578e+001 1.477112e+001 -1.968196e+002
      vertex   -3.418323e+001 1.585000e+001 -1.968196e+002
    endloop
  endfacet
  facet normal 1.000000e+000 0.000000e+000 0.000000e+000
    outer loop
      vertex   -1.890972e+001 1.485000e+001 -1.954196e+002
      vertex   -1.890972e+001 1.385000e+001 -1.940196e+002
      vertex   -1.890972e+001 1.385000e+001 -1.968196e+002
    endloop
  endfacet
  facet normal 1.000000e+000 0.000000e+000 0.000000e+000
    outer loop
      vertex   -1.890972e+001 1.485000e+001 -1.954196e+002
      vertex   -1.890972e+001 1.385000e+001 -1.968196e+002
      vertex   -1.890972e+001 1.585000e+001 -1.968196e+002
    endloop
  endfacet
  facet normal 1.000000e+000 0.000000e+000 -0.000000e+000
    outer loop
      vertex   -1.890972e+001 1.485000e+001 -1.954196e+002
      vertex   -1.890972e+001 1.585000e+001 -1.968196e+002
      vertex   -1.890972e+001 1.585000e+001 -1.940196e+002
    endloop
  endfacet
  facet normal 0.000000e+000 0.000000e+000 -1.000000e+000
    outer loop
      vertex   -1.890972e+001 1.585000e+001 -1.968196e+002
      vertex   -2.654647e+001 1.495000e+001 -1.968196e+002
      vertex   -3.418323e+001 1.585000e+001 -1.968196e+002
    endloop
  endfacet
  facet normal 0.000000e+000 0.000000e+000 -1.000000e+000
    outer loop
      vertex   -1.890972e+001 1.585000e+001 -1.968196e+002
      vertex   -1.890972e+001 1.385000e+001 -1.968196e+002
      vertex   -2.654647e+001 1.495000e+001 -1.968196e+002
    endloop
  endfacet
  facet normal 0.000000e+000 0.000000e+000 -1.000000e+000
    outer loop
      vertex   -1.890972e+001 1.385000e+001 -1.968196e+002
      vertex   -2.488477e+001 1.426170e+001 -1.968196e+002
      vertex   -2.564717e+001 1.477112e+001 -1.968196e+002
    endloop
  endfacet
  facet normal -1.000000e+000 0.000000e+000 0.000000e+000
    outer loop
      vertex   -3.418323e+001 1.485000e+001 -1.954196e+002
      vertex   -3.418323e+001 1.585000e+001 -1.968196e+002
      vertex   -3.418323e+001 1.385000e+001 -1.968196e+002
    endloop
  endfacet
  facet normal -1.000000e+000 0.000000e+000 -0.000000e+000
    outer loop
      vertex   -3.418323e+001 1.485000e+001 -1.954196e+002
      vertex   -3.418323e+001 1.585000e+001 -1.940196e+002
      vertex   -3.418323e+001 1.585000e+001 -1.968196e+002
    endloop
  endfacet
  facet normal 0.000000e+000 0.000000e+000 -1.000000e+000
    outer loop
      vertex   -1.890972e+001 1.385000e+001 -1.968196e+002
      vertex   -2.564717e+001 1.477112e+001 -1.968196e+002
      vertex   -2.654647e+001 1.495000e+001 -1.968196e+002
    endloop
  endfacet
  facet normal -1.000000e+000 0.000000e+000 0.000000e+000
    outer loop
      vertex   -3.418323e+001 1.485000e+001 -1.954196e+002
      vertex   -3.418323e+001 1.385000e+001 -1.968196e+002
      vertex   -3.418323e+001 1.385000e+001 -1.940196e+002
    endloop
  endfacet
  facet normal 0.000000e+000 1.000000e+000 0.000000e+000
    outer loop
      vertex   -2.654647e+001 1.585000e+001 -1.954196e+002
      vertex   -1.890972e+001 1.585000e+001 -1.940196e+002
      vertex   -1.890972e+001 1.585000e+001 -1.968196e+002
    endloop
  endfacet
  facet normal 0.000000e+000 1.000000e+000 0.000000e+000
    outer loop
      vertex   -2.654647e+001 1.585000e+001 -1.954196e+002
      vertex   -1.890972e+001 1.585000e+001 -1.968196e+002
      vertex   -3.418323e+001 1.585000e+001 -1.968196e+002
    endloop
  endfacet
  facet normal -0.000000e+000 1.000000e+000 0.000000e+000
    outer loop
      vertex   -2.654647e+001 1.585000e+001 -1.954196e+002
      vertex   -3.418323e+001 1.585000e+001 -1.940196e+002
      vertex   -1.890972e+001 1.585000e+001 -1.940196e+002
    endloop
  endfacet
  facet normal 1.000000e+000 0.000000e+000 0.000000e+000
    outer loop
      vertex   -1.890972e+001 1.485000e+001 -1.954196e+002
      vertex   -1.890972e+001 1.585000e+001 -1.940196e+002
      vertex   -1.890972e+001 1.385000e+001 -1.940196e+002
    endloop
  endfacet
  facet normal -1.000000e+000 0.000000e+000 0.000000e+000
    outer loop
      vertex   -3.418323e+001 1.485000e+001 -1.954196e+002
      vertex   -3.418323e+001 1.385000e+001 -1.940196e+002
      vertex   -3.418323e+001 1.585000e+001 -1.940196e+002
    endloop
  endfacet
  facet normal 0.000000e+000 0.000000e+000 1.000000e+000
    outer loop
      vertex   -2.654647e+001 1.355223e+001 -1.940196e+002
      vertex   -3.418323e+001 1.585000e+001 -1.940196e+002
      vertex   -3.418323e+001 1.385000e+001 -1.940196e+002
    endloop
  endfacet
  facet normal 0.000000e+000 0.000000e+000 1.000000e+000
    outer loop
      vertex   -2.654647e+001 1.355223e+001 -1.940196e+002
      vertex   -3.418323e+001 1.385000e+001 -1.940196e+002
      vertex   -3.376403e+001 1.356927e+001 -1.940196e+002
    endloop
  endfacet
  facet normal 0.000000e+000 -0.000000e+000 1.000000e+000
    outer loop
      vertex   -2.654647e+001 1.355223e+001 -1.940196e+002
      vertex   -1.932892e+001 1.356927e+001 -1.940196e+002
      vertex   -1.890972e+001 1.385000e+001 -1.940196e+002
    endloop
  endfacet
  facet normal 0.000000e+000 -0.000000e+000 1.000000e+000
    outer loop
      vertex   -2.654647e+001 1.355223e+001 -1.940196e+002
      vertex   -1.890972e+001 1.385000e+001 -1.940196e+002
      vertex   -1.890972e+001 1.585000e+001 -1.940196e+002
    endloop
  endfacet
  facet normal 0.000000e+000 0.000000e+000 1.000000e+000
    outer loop
      vertex   -2.654647e+001 1.355223e+001 -1.940196e+002
      vertex   -1.890972e+001 1.585000e+001 -1.940196e+002
      vertex   -3.418323e+001 1.585000e+001 -1.940196e+002
    endloop
  endfacet
  facet normal 0.000000e+000 -0.000000e+000 1.000000e+000
    outer loop
      vertex   -2.654647e+001 1.355223e+001 -1.940196e+002
      vertex   -2.278535e+001 1.199077e+001 -1.940196e+002
      vertex   -1.932892e+001 1.356927e+001 -1.940196e+002
    endloop
  endfacet
  facet normal 0.000000e+000 0.000000e+000 1.000000e+000
    outer loop
      vertex   -2.654647e+001 1.355223e+001 -1.940196e+002
      vertex   -2.654647e+001 1.145000e+001 -1.940196e+002
      vertex   -2.278535e+001 1.199077e+001 -1.940196e+002
    endloop
  endfacet
  facet normal -0.000000e+000 0.000000e+000 1.000000e+000
    outer loop
      vertex   -2.654647e+001 1.355223e+001 -1.940196e+002
      vertex   -3.030760e+001 1.199077e+001 -1.940196e+002
      vertex   -2.654647e+001 1.145000e+001 -1.940196e+002
    endloop
  endfacet
  facet normal 0.000000e+000 0.000000e+000 1.000000e+000
    outer loop
      vertex   -2.654647e+001 1.355223e+001 -1.940196e+002
      vertex   -3.376403e+001 1.356927e+001 -1.940196e+002
      vertex   -3.030760e+001 1.199077e+001 -1.940196e+002
    endloop
  endfacet
endsolid
